<svg xmlns="http://www.w3.org/2000/svg" width="1024" height="1024" viewBox="0 0 1024 1024" shape-rendering="geometricPrecision">
<path fill="#001709" fill-rule="evenodd" d="M 382 667 L 365 669 L 358 676 L 355 714 L 360 719 L 377 718 L 386 710 L 388 672 Z M 733 661 L 737 690 L 739 692 L 763 694 L 771 689 L 771 676 L 763 665 L 743 660 Z M 621 566 L 618 570 L 620 595 L 626 600 L 644 601 L 647 598 L 645 571 L 638 566 Z M 386 563 L 383 565 L 377 590 L 392 589 L 394 587 Z M 502 443 L 505 454 L 516 464 L 520 464 L 512 454 L 510 447 L 512 443 L 541 459 L 574 465 L 574 463 L 562 462 L 538 454 L 511 435 L 506 436 Z M 747 376 L 744 376 L 744 385 L 738 390 L 733 389 L 726 381 L 724 382 L 721 407 L 709 436 L 691 459 L 687 460 L 684 458 L 689 470 L 694 470 L 715 436 L 725 396 L 729 394 L 734 397 L 742 392 L 744 405 L 746 406 L 748 391 L 746 389 Z M 635 372 L 623 383 L 630 402 L 630 419 L 623 439 L 628 433 L 632 421 L 632 401 L 637 397 L 647 394 L 649 391 L 645 383 L 643 385 L 638 381 Z M 624 361 L 613 361 L 600 367 L 579 385 L 581 392 L 576 404 L 575 421 L 579 434 L 587 441 L 599 439 L 607 427 L 610 402 L 604 384 L 610 380 L 622 378 L 628 373 L 628 365 Z M 587 393 L 592 394 L 596 399 L 591 408 L 586 408 L 582 404 L 582 398 Z M 486 328 L 479 334 L 475 346 L 478 349 L 486 349 L 489 353 L 478 362 L 471 375 L 468 388 L 468 402 L 466 404 L 471 407 L 472 382 L 480 365 L 489 356 L 495 353 L 502 354 L 508 358 L 495 367 L 490 377 L 487 401 L 492 417 L 503 426 L 511 426 L 519 420 L 527 402 L 528 384 L 524 371 L 526 370 L 533 375 L 543 373 L 540 362 L 513 338 L 496 329 Z M 517 378 L 521 378 L 526 383 L 525 391 L 519 395 L 511 388 L 513 381 Z M 489 306 L 467 321 L 454 322 L 427 332 L 416 346 L 416 349 L 429 339 L 448 330 L 459 327 L 473 327 L 473 321 Z M 729 289 L 716 303 L 728 317 L 728 322 L 724 326 L 717 325 L 707 315 L 704 315 L 692 325 L 685 325 L 696 339 L 696 346 L 698 347 L 701 344 L 706 352 L 713 346 L 720 348 L 724 342 L 732 340 L 748 331 L 747 303 Z M 283 497 L 320 585 L 347 534 L 412 525 L 375 454 L 383 375 L 431 317 L 500 291 L 569 300 L 633 345 L 665 418 L 656 484 L 631 524 L 654 457 L 639 479 L 616 469 L 555 520 L 513 520 L 442 472 L 435 420 L 399 395 L 399 377 L 380 433 L 420 525 L 667 531 L 703 584 L 740 496 L 707 542 L 682 531 L 665 506 L 672 411 L 647 351 L 578 296 L 508 283 L 451 296 L 399 336 L 368 399 L 368 464 L 349 413 L 337 429 L 344 449 L 304 445 L 373 475 L 345 530 L 313 543 Z M 413 490 L 443 477 L 499 517 L 497 519 L 429 521 L 420 512 Z M 634 486 L 632 490 L 619 481 L 593 502 L 589 501 L 601 492 L 616 476 L 627 479 Z M 394 400 L 430 425 L 432 456 L 428 454 L 423 428 L 395 407 L 387 419 L 387 430 L 391 447 L 390 451 L 387 450 L 382 419 Z M 436 253 L 439 281 L 441 283 L 469 275 L 496 271 L 538 272 L 565 277 L 581 283 L 583 281 L 586 254 L 584 250 L 551 243 L 550 241 L 529 240 L 478 242 L 451 247 Z M 444 256 L 453 251 L 484 245 L 530 244 L 574 252 L 577 255 L 576 268 L 572 272 L 534 265 L 499 264 L 448 273 L 445 270 Z M 508 82 L 489 110 L 460 116 L 479 143 L 463 169 L 431 135 L 403 130 L 419 211 L 237 257 L 238 437 L 293 601 L 271 592 L 274 606 L 198 644 L 167 788 L 236 826 L 316 802 L 515 915 L 706 802 L 788 826 L 842 803 L 859 780 L 836 728 L 842 686 L 828 648 L 749 605 L 764 569 L 743 604 L 731 601 L 784 446 L 785 256 L 605 211 L 618 127 L 561 170 L 544 143 L 564 118 Z M 347 794 L 358 789 L 427 842 L 512 886 L 598 840 L 663 789 L 675 793 L 651 819 L 617 846 L 513 906 L 458 879 L 407 847 L 372 820 Z M 372 785 L 374 783 L 388 793 L 403 789 L 416 793 L 476 829 L 487 842 L 512 831 L 534 844 L 538 842 L 542 832 L 603 794 L 632 794 L 645 785 L 648 788 L 587 833 L 546 855 L 508 869 L 423 826 L 379 794 Z M 404 778 L 421 775 L 428 779 L 434 775 L 501 771 L 506 777 L 512 770 L 523 789 L 517 774 L 520 771 L 577 773 L 597 777 L 607 775 L 617 777 L 618 780 L 582 807 L 541 830 L 537 826 L 536 816 L 547 808 L 549 798 L 546 797 L 530 810 L 534 834 L 509 824 L 489 835 L 486 832 L 492 811 L 480 800 L 474 799 L 479 810 L 486 816 L 482 829 L 439 806 L 409 785 Z M 311 784 L 363 769 L 420 760 L 545 756 L 643 766 L 695 778 L 712 786 L 609 770 L 543 765 L 432 768 L 316 786 Z M 412 645 L 418 651 L 422 661 L 422 705 L 419 721 L 414 730 L 404 739 L 381 747 L 342 751 L 329 746 L 323 739 L 319 728 L 321 684 L 324 670 L 329 660 L 340 649 L 361 641 L 400 640 Z M 609 634 L 676 640 L 683 644 L 685 662 L 683 669 L 641 666 L 644 677 L 677 680 L 680 683 L 682 701 L 679 704 L 644 701 L 643 711 L 646 714 L 687 718 L 691 725 L 692 746 L 690 748 L 617 741 L 611 737 L 607 636 Z M 511 631 L 514 634 L 512 655 L 508 660 L 476 661 L 464 668 L 462 674 L 462 699 L 464 704 L 470 709 L 510 707 L 513 710 L 513 732 L 508 736 L 452 738 L 440 734 L 433 727 L 428 712 L 429 663 L 435 649 L 445 639 L 461 633 Z M 536 635 L 554 630 L 597 632 L 600 635 L 599 658 L 596 661 L 561 659 L 553 666 L 553 697 L 555 703 L 563 707 L 599 708 L 602 711 L 603 736 L 600 739 L 544 736 L 532 731 L 524 723 L 518 705 L 518 663 L 524 646 Z M 318 625 L 321 634 L 314 669 L 284 673 L 281 670 L 282 660 L 277 659 L 256 664 L 247 673 L 251 681 L 293 687 L 311 699 L 315 711 L 314 729 L 304 754 L 290 766 L 266 776 L 222 786 L 198 784 L 193 778 L 193 771 L 205 738 L 233 732 L 234 747 L 237 749 L 262 742 L 270 735 L 269 727 L 264 724 L 227 719 L 208 708 L 205 682 L 214 656 L 228 643 L 252 632 L 286 625 Z M 693 623 L 733 625 L 770 631 L 791 640 L 805 653 L 814 673 L 817 701 L 807 715 L 794 720 L 793 723 L 832 776 L 832 781 L 826 787 L 818 789 L 785 778 L 751 727 L 743 729 L 748 762 L 745 770 L 707 763 L 701 759 L 690 626 Z M 600 545 L 606 542 L 645 545 L 660 550 L 667 557 L 672 569 L 677 601 L 676 613 L 669 622 L 658 626 L 619 623 L 607 619 L 596 609 L 593 604 L 591 591 L 591 559 L 594 551 Z M 404 540 L 408 544 L 433 622 L 427 625 L 408 626 L 400 610 L 371 613 L 368 616 L 366 626 L 362 630 L 337 634 L 334 631 L 363 547 L 371 544 Z M 516 538 L 584 540 L 587 543 L 587 561 L 584 564 L 565 562 L 563 564 L 564 614 L 561 617 L 544 617 L 537 614 L 537 565 L 535 563 L 516 563 L 513 560 L 513 541 Z M 505 538 L 508 541 L 508 598 L 505 606 L 497 614 L 481 619 L 464 620 L 445 615 L 437 607 L 433 597 L 434 543 L 442 539 L 457 539 L 459 541 L 459 587 L 464 593 L 476 593 L 482 588 L 482 541 L 485 538 Z M 288 347 L 295 353 L 296 377 L 303 399 L 300 404 L 295 404 L 290 400 L 283 380 L 281 355 Z M 290 311 L 301 315 L 302 324 L 299 327 L 293 326 L 289 329 L 283 320 Z M 316 285 L 321 285 L 326 291 L 326 294 L 320 300 L 316 300 L 311 295 L 311 291 Z M 250 267 L 427 228 L 267 276 L 264 363 L 305 438 L 309 407 L 328 417 L 359 387 L 318 386 L 313 350 L 337 353 L 384 299 L 323 333 L 365 258 L 514 234 L 670 252 L 597 238 L 604 224 L 770 264 L 769 444 L 707 602 L 822 646 L 852 786 L 786 820 L 844 782 L 811 726 L 829 702 L 822 664 L 784 626 L 702 610 L 669 540 L 495 528 L 353 539 L 321 610 L 220 638 L 181 780 L 234 819 L 172 779 L 199 648 L 316 602 L 254 443 Z M 431 223 L 438 219 L 476 213 L 538 212 L 589 220 L 591 227 L 586 235 L 530 227 L 493 227 L 436 235 L 433 232 Z M 410 135 L 413 132 L 432 143 L 443 153 L 452 172 L 459 178 L 465 178 L 473 171 L 488 140 L 467 120 L 497 113 L 508 91 L 513 89 L 529 115 L 550 117 L 556 121 L 538 135 L 535 142 L 550 172 L 557 178 L 570 174 L 587 146 L 609 133 L 613 137 L 595 213 L 591 218 L 534 209 L 478 210 L 432 218 Z"/>
<path fill="#0f611d" fill-rule="evenodd" d="M 390 794 L 421 818 L 477 849 L 506 860 L 515 860 L 563 840 L 611 811 L 630 795 L 603 795 L 542 833 L 539 842 L 534 845 L 512 832 L 487 843 L 476 830 L 418 795 L 405 790 Z M 175 783 L 182 793 L 194 803 L 209 811 L 233 819 L 195 798 L 178 781 Z M 518 774 L 524 789 L 544 792 L 549 796 L 550 802 L 548 806 L 550 807 L 578 791 L 595 778 L 589 775 L 581 776 L 577 774 L 520 772 Z M 503 773 L 442 775 L 431 777 L 430 780 L 448 793 L 477 809 L 473 800 L 474 796 L 479 792 L 497 790 L 503 780 Z M 846 767 L 842 765 L 847 779 L 842 788 L 831 796 L 787 819 L 807 814 L 828 804 L 843 793 L 851 781 Z M 252 532 L 250 534 L 267 581 L 278 602 L 291 602 L 292 599 L 284 587 L 263 540 Z M 774 530 L 770 530 L 762 538 L 748 571 L 732 600 L 733 602 L 744 602 L 752 590 L 769 549 Z M 666 506 L 682 530 L 707 541 L 719 529 L 740 493 L 725 489 L 674 487 Z M 366 497 L 365 488 L 287 490 L 283 492 L 295 516 L 313 542 L 317 542 L 345 529 Z M 394 401 L 383 419 L 388 450 L 390 450 L 386 430 L 386 419 L 391 409 L 395 406 L 401 412 L 424 426 L 429 454 L 432 455 L 429 426 Z M 264 364 L 264 406 L 276 472 L 282 474 L 289 472 L 342 470 L 342 466 L 331 458 L 319 457 L 304 449 L 302 436 L 294 428 L 274 396 L 269 383 L 266 364 Z M 605 330 L 598 346 L 600 358 L 603 359 L 614 354 L 629 356 L 622 345 Z M 481 308 L 469 309 L 467 305 L 433 321 L 420 333 L 403 358 L 397 372 L 397 377 L 408 356 L 427 331 L 454 321 L 467 320 Z M 365 259 L 353 265 L 346 273 L 339 289 L 339 302 L 371 281 L 361 271 L 361 268 L 366 263 Z M 381 263 L 414 283 L 394 317 L 380 301 L 354 323 L 361 385 L 336 393 L 366 463 L 365 411 L 381 360 L 442 290 L 434 250 L 529 239 L 589 249 L 596 278 L 637 261 L 635 278 L 670 299 L 665 314 L 631 296 L 618 311 L 656 352 L 674 418 L 672 469 L 688 468 L 679 451 L 704 393 L 689 395 L 683 384 L 706 354 L 682 321 L 689 304 L 680 285 L 722 279 L 748 303 L 749 331 L 721 347 L 748 376 L 748 404 L 742 393 L 726 396 L 695 468 L 748 471 L 761 374 L 755 275 L 684 254 L 519 235 Z M 725 435 L 730 436 L 735 443 L 733 451 L 727 456 L 717 446 L 718 440 Z M 732 412 L 738 413 L 744 421 L 741 430 L 737 434 L 725 424 L 726 417 Z M 393 238 L 390 235 L 380 239 L 373 236 L 362 236 L 352 240 L 345 248 L 333 250 L 344 251 L 366 245 L 390 242 Z"/>
<path fill="#425a29" fill-rule="evenodd" d="M 344 823 L 358 840 L 359 851 L 353 862 L 358 876 L 384 908 L 418 942 L 456 965 L 487 976 L 533 974 L 546 966 L 557 967 L 562 959 L 587 950 L 606 934 L 616 931 L 638 908 L 650 883 L 659 876 L 670 834 L 677 828 L 676 824 L 578 885 L 510 917 L 449 887 Z M 298 552 L 294 560 L 299 567 L 304 565 L 304 563 L 306 564 L 306 571 L 302 572 L 302 575 L 312 593 L 315 594 L 318 591 L 318 584 L 304 561 L 304 554 L 301 551 Z M 750 500 L 746 503 L 742 502 L 725 545 L 704 585 L 707 595 L 711 593 L 722 576 L 729 558 L 727 553 L 732 553 L 738 541 L 735 538 L 735 534 L 738 528 L 739 532 L 743 530 L 751 509 L 752 501 Z M 268 488 L 272 507 L 286 541 L 297 543 L 294 532 L 292 532 L 291 539 L 287 539 L 286 530 L 289 528 L 291 530 L 291 526 L 284 506 L 280 500 L 271 494 L 271 490 Z M 754 260 L 752 268 L 759 280 L 758 287 L 761 300 L 763 335 L 760 428 L 757 437 L 760 441 L 757 449 L 762 463 L 769 428 L 767 410 L 771 405 L 774 320 L 770 268 L 768 265 Z M 351 239 L 294 252 L 252 268 L 247 356 L 254 429 L 263 470 L 269 453 L 265 437 L 260 380 L 260 316 L 264 275 L 315 256 L 328 255 L 333 252 L 333 249 L 348 245 Z M 427 234 L 422 226 L 412 226 L 374 233 L 373 235 L 380 238 L 390 234 L 396 241 L 419 238 Z M 596 234 L 597 237 L 616 240 L 627 239 L 635 242 L 640 240 L 642 243 L 661 245 L 699 255 L 704 254 L 704 245 L 649 233 L 600 225 Z M 739 0 L 771 51 L 827 91 L 911 182 L 982 316 L 980 366 L 938 520 L 945 572 L 971 630 L 973 679 L 944 730 L 903 766 L 787 828 L 760 820 L 775 851 L 828 862 L 870 854 L 976 785 L 1023 772 L 1023 179 L 994 171 L 893 58 L 881 0 Z M 94 0 L 97 38 L 83 79 L 19 130 L 0 131 L 0 764 L 140 855 L 216 870 L 248 850 L 252 825 L 219 823 L 118 774 L 61 692 L 58 637 L 85 534 L 20 363 L 42 275 L 95 173 L 215 61 L 246 15 L 240 0 Z"/>
<path fill="#59763a" fill-rule="evenodd" d="M 188 739 L 179 760 L 175 776 L 177 780 L 188 746 Z M 827 730 L 825 732 L 839 761 L 844 764 L 845 762 L 831 733 Z M 785 527 L 781 530 L 756 595 L 762 590 L 775 568 L 778 554 L 782 548 L 786 531 Z M 241 527 L 240 542 L 245 551 L 249 569 L 261 592 L 272 603 Z M 783 489 L 780 488 L 775 497 L 764 533 L 770 529 L 775 530 L 778 526 L 786 495 Z M 235 482 L 246 525 L 251 532 L 260 535 L 245 484 L 241 479 Z M 268 456 L 263 477 L 266 486 L 272 490 L 272 494 L 276 498 L 280 498 L 274 479 L 271 458 Z M 758 439 L 755 441 L 748 485 L 744 490 L 742 498 L 745 502 L 754 498 L 762 471 L 762 465 L 756 449 L 759 444 Z M 589 261 L 583 287 L 590 293 L 599 296 L 600 286 L 591 271 Z M 705 247 L 704 256 L 709 255 L 728 264 L 734 264 L 739 258 L 744 262 L 743 268 L 752 271 L 752 260 L 750 258 L 740 255 L 735 256 L 730 252 L 710 246 Z M 564 0 L 600 40 L 796 130 L 870 202 L 905 269 L 912 365 L 865 534 L 898 619 L 906 670 L 876 720 L 839 722 L 861 789 L 930 745 L 972 679 L 970 630 L 937 541 L 980 361 L 972 287 L 890 157 L 770 51 L 738 0 Z M 436 0 L 241 0 L 247 15 L 230 45 L 96 173 L 36 293 L 21 366 L 86 534 L 59 637 L 59 680 L 99 756 L 157 795 L 170 795 L 166 776 L 181 730 L 166 735 L 143 720 L 121 678 L 152 531 L 98 358 L 112 258 L 139 204 L 190 154 L 246 115 L 343 80 L 427 19 Z"/>
<path fill="#74964c" fill-rule="evenodd" d="M 421 493 L 422 502 L 429 517 L 432 519 L 487 517 L 492 514 L 478 510 L 442 485 Z M 227 423 L 226 433 L 231 465 L 236 479 L 240 479 L 243 476 L 234 426 L 232 423 Z M 797 415 L 791 417 L 779 487 L 786 491 L 791 476 L 799 424 L 799 416 Z M 133 214 L 98 349 L 153 531 L 123 684 L 166 734 L 184 725 L 186 622 L 216 599 L 270 604 L 223 451 L 197 443 L 163 378 L 159 288 L 184 226 L 244 180 L 333 158 L 390 165 L 402 205 L 358 215 L 414 209 L 401 128 L 462 167 L 476 143 L 458 116 L 508 80 L 565 115 L 546 143 L 561 168 L 621 128 L 610 209 L 655 214 L 637 198 L 648 165 L 698 158 L 793 187 L 839 233 L 860 360 L 803 432 L 752 604 L 840 624 L 843 718 L 894 698 L 905 648 L 864 514 L 907 386 L 911 293 L 869 202 L 796 131 L 600 41 L 563 0 L 437 0 L 343 81 L 221 132 Z"/>
<path fill="#92c35b" fill-rule="evenodd" d="M 615 780 L 601 778 L 570 800 L 539 817 L 539 824 L 544 826 L 594 796 Z M 776 609 L 799 620 L 817 633 L 831 650 L 839 669 L 842 671 L 847 659 L 847 645 L 839 624 L 829 614 L 817 606 L 807 604 L 789 605 Z M 246 608 L 232 601 L 216 600 L 204 606 L 183 628 L 177 642 L 176 661 L 181 669 L 199 641 L 219 624 L 245 612 Z M 415 492 L 421 510 L 425 515 L 419 494 L 423 490 L 437 484 L 445 485 L 467 501 L 488 512 L 443 480 Z M 435 298 L 440 300 L 472 286 L 500 281 L 544 283 L 571 291 L 589 299 L 589 295 L 578 286 L 549 276 L 504 273 L 481 276 L 444 290 Z M 445 259 L 449 271 L 491 262 L 528 262 L 572 270 L 576 257 L 567 252 L 545 248 L 498 246 L 462 251 L 447 255 Z M 649 165 L 637 191 L 642 204 L 656 210 L 654 215 L 734 234 L 788 255 L 794 311 L 790 415 L 801 412 L 803 429 L 815 429 L 833 414 L 852 382 L 861 348 L 858 286 L 838 233 L 800 193 L 759 173 L 698 159 L 667 160 Z M 805 328 L 808 330 L 808 353 L 806 356 L 803 354 L 803 330 Z M 382 158 L 333 159 L 265 173 L 228 189 L 185 226 L 160 288 L 159 350 L 170 397 L 186 428 L 202 447 L 213 452 L 223 450 L 220 420 L 223 417 L 225 423 L 234 423 L 229 310 L 235 255 L 284 235 L 361 218 L 351 213 L 396 202 L 392 173 Z M 217 327 L 220 332 L 220 359 L 218 361 L 215 358 L 215 332 Z"/>
<path fill="#f9dd02" fill-rule="evenodd" d="M 354 799 L 369 816 L 406 845 L 510 905 L 600 856 L 645 823 L 668 800 L 659 795 L 631 823 L 591 851 L 509 894 L 416 841 L 369 805 L 361 794 Z M 705 784 L 635 766 L 535 758 L 422 761 L 365 770 L 321 782 L 440 766 L 550 764 L 628 771 Z M 408 650 L 394 646 L 366 647 L 350 651 L 335 662 L 328 676 L 325 718 L 320 723 L 322 725 L 322 734 L 331 746 L 338 749 L 380 746 L 402 739 L 414 728 L 416 724 L 417 664 L 414 656 Z M 386 666 L 393 672 L 392 708 L 382 721 L 370 725 L 360 725 L 350 715 L 352 683 L 363 669 L 371 666 Z M 615 641 L 613 643 L 616 733 L 612 737 L 621 740 L 690 747 L 689 730 L 684 724 L 642 719 L 639 716 L 640 702 L 645 699 L 679 702 L 674 686 L 640 682 L 637 679 L 637 665 L 640 662 L 682 667 L 678 649 L 671 646 Z M 447 645 L 440 652 L 434 670 L 433 707 L 435 717 L 432 722 L 435 728 L 445 735 L 454 737 L 510 734 L 512 729 L 506 713 L 471 715 L 465 713 L 457 702 L 457 681 L 462 668 L 474 660 L 507 659 L 508 640 L 506 638 L 475 638 L 459 640 Z M 535 643 L 525 657 L 523 670 L 524 710 L 521 714 L 526 724 L 532 730 L 546 735 L 600 738 L 602 736 L 596 714 L 558 712 L 550 705 L 547 692 L 548 665 L 559 658 L 594 659 L 597 652 L 595 641 L 585 638 L 552 637 Z M 313 631 L 279 633 L 253 639 L 232 648 L 221 657 L 212 677 L 210 708 L 225 717 L 265 723 L 272 732 L 266 741 L 238 750 L 233 748 L 233 733 L 206 741 L 201 747 L 194 772 L 199 783 L 219 785 L 254 778 L 284 768 L 302 755 L 309 743 L 313 726 L 306 702 L 296 695 L 250 688 L 243 682 L 242 673 L 258 662 L 280 657 L 287 660 L 287 669 L 309 667 L 312 663 Z M 698 630 L 696 634 L 704 720 L 702 729 L 704 733 L 701 737 L 702 759 L 746 768 L 742 728 L 745 725 L 752 726 L 787 778 L 815 787 L 828 784 L 831 776 L 791 722 L 808 713 L 813 706 L 807 671 L 798 654 L 789 646 L 764 637 Z M 728 660 L 731 657 L 746 659 L 765 665 L 777 681 L 775 694 L 769 699 L 735 697 L 732 693 Z M 659 456 L 648 482 L 642 488 L 635 506 L 625 520 L 627 523 L 634 521 L 650 495 L 659 471 Z M 377 441 L 376 452 L 379 464 L 392 495 L 409 519 L 413 522 L 419 522 L 420 519 L 406 489 L 393 474 L 384 455 L 381 442 Z M 308 409 L 306 416 L 315 426 L 315 429 L 306 439 L 306 446 L 313 449 L 327 438 L 336 448 L 343 448 L 346 441 L 336 428 L 346 416 L 345 410 L 338 409 L 326 419 L 315 409 Z M 392 368 L 387 373 L 379 391 L 379 408 L 381 408 L 390 395 Z M 716 348 L 710 351 L 704 362 L 685 386 L 689 392 L 694 392 L 706 381 L 708 382 L 707 397 L 701 419 L 694 433 L 682 449 L 682 454 L 686 458 L 690 458 L 696 453 L 714 423 L 721 402 L 723 381 L 725 379 L 735 389 L 740 388 L 742 385 L 741 377 Z M 686 281 L 683 288 L 695 304 L 685 313 L 685 321 L 692 324 L 704 313 L 707 313 L 717 324 L 725 324 L 727 317 L 715 304 L 715 301 L 725 291 L 726 285 L 719 281 L 708 290 L 703 291 L 692 281 Z M 608 274 L 610 286 L 615 292 L 614 302 L 616 305 L 623 307 L 626 304 L 624 294 L 627 291 L 651 302 L 662 310 L 666 310 L 669 307 L 669 302 L 665 296 L 629 278 L 638 268 L 638 265 L 634 262 Z M 433 223 L 436 233 L 489 226 L 535 226 L 585 234 L 588 232 L 590 225 L 588 221 L 535 213 L 479 214 L 450 218 Z M 419 144 L 419 171 L 433 217 L 467 210 L 506 207 L 548 209 L 589 217 L 593 215 L 603 173 L 604 145 L 586 156 L 572 181 L 564 185 L 556 184 L 544 174 L 529 143 L 530 134 L 546 124 L 525 121 L 512 99 L 499 121 L 476 125 L 494 141 L 480 172 L 468 184 L 454 183 L 445 174 L 437 156 Z"/>
<path fill="#f4fa6d" fill-rule="evenodd" d="M 368 803 L 430 849 L 513 893 L 591 850 L 631 822 L 653 801 L 590 847 L 513 887 L 448 857 L 368 800 Z M 640 711 L 642 718 L 682 722 L 687 727 L 689 726 L 687 719 L 650 716 Z M 459 679 L 458 702 L 465 712 L 471 714 L 479 712 L 493 713 L 495 711 L 506 712 L 509 715 L 510 725 L 512 725 L 512 714 L 509 708 L 502 710 L 467 709 L 461 701 Z M 328 671 L 322 686 L 322 720 L 324 718 L 325 683 Z M 244 671 L 243 680 L 249 686 L 283 690 L 301 696 L 309 706 L 310 719 L 312 720 L 312 704 L 305 694 L 291 688 L 255 684 L 246 679 L 246 671 Z M 389 669 L 389 698 L 386 713 L 375 720 L 359 720 L 354 714 L 354 693 L 352 693 L 351 715 L 356 722 L 360 724 L 375 723 L 382 720 L 388 714 L 392 700 L 392 672 Z M 432 666 L 430 671 L 430 714 L 433 718 Z M 551 663 L 548 670 L 548 692 L 551 705 L 556 710 L 563 712 L 584 711 L 596 713 L 599 719 L 601 719 L 598 709 L 573 710 L 561 708 L 554 703 L 551 693 Z M 419 661 L 416 719 L 419 715 L 421 664 Z M 730 660 L 729 665 L 734 695 L 738 697 L 755 696 L 739 693 L 736 690 L 732 660 Z M 697 659 L 695 669 L 701 716 L 700 725 L 703 728 Z M 611 656 L 612 732 L 615 733 L 613 665 L 611 663 Z M 792 644 L 805 660 L 812 687 L 812 701 L 814 703 L 816 697 L 815 685 L 810 665 L 802 651 Z M 238 642 L 234 642 L 226 647 L 213 660 L 206 687 L 206 698 L 209 703 L 212 670 L 217 658 Z M 265 613 L 261 612 L 238 620 L 216 633 L 200 649 L 195 657 L 195 662 L 199 662 L 208 648 L 222 635 L 239 625 L 264 616 Z M 742 610 L 791 628 L 812 645 L 825 665 L 829 664 L 829 660 L 819 644 L 796 625 L 767 613 Z M 620 530 L 640 531 L 647 535 L 668 538 L 678 549 L 685 565 L 689 562 L 679 540 L 672 534 L 652 530 Z M 381 531 L 362 531 L 346 536 L 335 557 L 335 563 L 339 562 L 351 539 Z M 414 334 L 408 338 L 392 361 L 391 367 L 394 371 L 402 355 L 414 340 Z M 413 136 L 417 161 L 419 161 L 418 144 L 421 142 L 438 155 L 453 181 L 460 184 L 465 184 L 474 178 L 493 141 L 489 137 L 489 142 L 474 172 L 468 178 L 460 180 L 449 170 L 442 154 L 427 142 Z M 530 136 L 531 146 L 546 174 L 554 181 L 562 184 L 573 178 L 584 156 L 603 142 L 605 144 L 604 160 L 606 161 L 610 144 L 610 137 L 607 137 L 585 150 L 570 176 L 563 180 L 558 180 L 550 176 L 533 143 L 534 136 L 539 132 L 532 133 Z M 551 121 L 527 116 L 512 91 L 506 103 L 495 116 L 481 118 L 478 121 L 471 120 L 470 123 L 498 120 L 510 97 L 515 100 L 524 119 L 531 120 L 535 118 L 535 120 L 544 121 L 548 124 Z"/>
<path fill="#f5f7ee" fill-rule="evenodd" d="M 405 779 L 425 795 L 479 828 L 483 826 L 485 817 L 482 814 L 452 798 L 422 777 Z M 478 795 L 493 811 L 488 832 L 490 833 L 510 822 L 532 833 L 534 831 L 528 812 L 544 796 L 523 792 L 519 788 L 512 772 L 509 773 L 499 792 Z M 410 647 L 401 642 L 383 641 L 358 644 L 341 653 L 354 647 L 372 644 Z M 609 637 L 610 655 L 612 642 L 615 639 L 678 645 L 679 647 L 680 645 L 679 643 L 669 643 L 653 639 L 611 635 Z M 527 648 L 535 641 L 544 637 L 579 636 L 596 639 L 597 636 L 590 633 L 550 632 L 532 640 Z M 512 634 L 510 632 L 471 633 L 450 638 L 438 648 L 432 662 L 436 654 L 446 644 L 454 640 L 489 636 L 506 636 L 510 639 Z M 692 627 L 693 634 L 697 629 L 717 628 L 725 631 L 745 631 L 751 634 L 776 637 L 766 632 L 743 630 L 736 627 L 721 626 L 714 628 L 700 625 Z M 599 547 L 592 561 L 593 598 L 598 610 L 606 617 L 621 622 L 661 624 L 670 620 L 675 612 L 676 604 L 671 571 L 665 556 L 655 549 L 643 546 L 608 543 Z M 622 564 L 639 565 L 645 569 L 649 592 L 646 601 L 629 602 L 620 597 L 618 593 L 617 569 Z M 405 542 L 380 544 L 363 549 L 336 632 L 362 629 L 370 612 L 400 609 L 408 625 L 430 623 L 432 621 Z M 386 561 L 395 588 L 393 590 L 376 591 L 375 587 L 382 564 Z M 517 540 L 515 542 L 515 559 L 517 561 L 530 561 L 538 564 L 538 613 L 540 615 L 562 615 L 562 564 L 565 561 L 584 562 L 586 560 L 586 544 L 575 541 Z M 437 541 L 435 543 L 434 594 L 439 608 L 446 614 L 458 618 L 485 617 L 499 611 L 503 607 L 507 596 L 506 541 L 485 540 L 483 542 L 483 588 L 477 594 L 464 594 L 458 588 L 458 542 L 456 540 Z M 670 474 L 677 485 L 742 488 L 746 480 L 745 476 L 683 472 Z M 374 482 L 369 472 L 277 477 L 281 488 L 372 484 Z M 516 380 L 513 383 L 513 389 L 515 392 L 520 393 L 524 389 L 524 383 L 521 380 Z M 287 349 L 283 353 L 284 378 L 291 399 L 295 403 L 301 402 L 301 396 L 295 379 L 293 352 Z M 353 345 L 346 347 L 336 355 L 323 346 L 316 348 L 316 355 L 325 364 L 325 367 L 315 379 L 318 385 L 326 385 L 336 375 L 349 386 L 357 383 L 357 377 L 346 366 L 357 352 Z M 285 319 L 288 327 L 300 324 L 299 316 L 291 313 Z M 463 301 L 453 307 L 505 297 L 476 319 L 474 324 L 478 330 L 453 330 L 420 347 L 407 363 L 400 385 L 405 400 L 438 419 L 438 455 L 448 477 L 512 518 L 555 519 L 568 505 L 596 491 L 617 467 L 634 478 L 644 473 L 656 446 L 664 444 L 661 403 L 646 365 L 614 328 L 575 304 L 542 294 L 504 292 Z M 501 441 L 505 435 L 512 434 L 528 447 L 541 454 L 555 459 L 577 462 L 578 465 L 564 466 L 549 463 L 535 458 L 513 445 L 513 453 L 521 463 L 518 466 L 505 456 L 501 448 Z M 622 359 L 630 367 L 629 374 L 623 379 L 617 379 L 605 384 L 611 399 L 611 415 L 608 428 L 599 440 L 593 443 L 586 442 L 579 436 L 574 423 L 574 407 L 580 391 L 578 385 L 599 366 L 615 359 Z M 487 326 L 497 328 L 512 336 L 536 358 L 548 358 L 542 363 L 544 368 L 542 375 L 532 376 L 526 372 L 529 382 L 528 404 L 521 419 L 512 427 L 502 427 L 492 419 L 486 403 L 488 379 L 493 368 L 501 360 L 505 359 L 501 355 L 490 357 L 478 370 L 472 390 L 473 408 L 464 407 L 452 413 L 448 412 L 467 401 L 467 385 L 470 374 L 476 363 L 487 353 L 486 351 L 477 350 L 474 343 L 478 330 Z M 590 318 L 601 326 L 606 326 L 626 346 L 641 367 L 650 388 L 648 395 L 633 401 L 634 417 L 632 426 L 625 440 L 619 445 L 618 443 L 625 432 L 629 416 L 628 400 L 622 382 L 629 377 L 632 367 L 630 361 L 621 356 L 612 357 L 601 363 L 596 360 L 590 347 L 600 331 Z M 412 278 L 392 270 L 367 266 L 364 271 L 375 277 L 376 280 L 338 307 L 325 323 L 323 331 L 327 335 L 333 334 L 350 313 L 366 302 L 383 294 L 386 296 L 383 307 L 384 311 L 394 313 Z"/>
</svg>