<?xml version="1.0" standalone="no"?>
<!DOCTYPE svg PUBLIC "-//W3C//DTD SVG 20010904//EN"
 "http://www.w3.org/TR/2001/REC-SVG-20010904/DTD/svg10.dtd">
<svg version="1.0" xmlns="http://www.w3.org/2000/svg"
 width="1024.000000pt" height="1024.000000pt" viewBox="0 0 1024.000000 1024.000000"
 preserveAspectRatio="xMidYMid meet">
<metadata>
Created by potrace 1.16, written by Peter Selinger 2001-2019
</metadata>
<g transform="translate(0.000000,1024.000000) scale(0.100000,-0.100000)"
fill="#000000" stroke="none">
<path d="M0 5120 l0 -5120 5120 0 5120 0 0 5120 0 5120 -5120 0 -5120 0 0
-5120z m5138 4217 c7 -7 36 -63 65 -123 30 -60 61 -114 68 -120 8 -6 72 -18
143 -28 71 -9 136 -20 143 -25 15 -8 -4 -26 -145 -131 -87 -66 -87 -52 5 -237
100 -201 158 -255 237 -218 49 23 63 42 125 168 48 95 63 118 106 149 61 46
234 143 241 135 3 -3 -2 -43 -11 -89 -24 -122 -174 -731 -184 -747 -8 -12 -30
-10 -142 12 -323 64 -527 81 -809 67 -237 -12 -363 -29 -636 -85 l-31 -7 -46
174 c-42 154 -135 550 -151 635 -3 18 -2 34 2 37 13 8 175 -84 242 -137 54
-42 65 -58 108 -150 58 -122 101 -167 162 -167 52 0 88 32 136 122 58 109 123
251 124 268 0 9 -21 32 -47 51 -100 74 -174 142 -166 149 4 5 70 17 147 28 79
11 144 26 151 33 8 8 37 61 65 119 68 137 75 145 98 117z m-936 -1171 l3 -30
-140 -17 c-477 -59 -1068 -196 -1440 -332 -207 -76 -233 -87 -245 -102 -23
-28 -53 -354 -66 -725 -7 -193 8 -585 32 -810 60 -579 205 -1129 420 -1586 78
-167 103 -224 99 -224 -14 0 -214 443 -261 578 -21 62 -30 78 -36 65 -6 -14
-7 -13 -6 7 2 48 -2 60 -17 54 -8 -4 -15 -2 -15 3 0 5 -16 9 -35 10 -40 1 -40
2 -3 -115 24 -74 18 -95 -7 -25 -137 393 -218 775 -271 1273 -25 239 -30 808
-9 1090 10 129 19 246 21 260 23 205 29 220 107 255 67 29 364 127 487 160 52
14 111 29 130 35 191 53 698 149 950 180 96 11 200 24 230 29 30 4 58 5 62 2
4 -3 8 -19 10 -35z m2058 8 c120 -12 456 -63 655 -99 30 -5 264 -61 400 -96
191 -48 534 -162 616 -204 42 -22 54 -55 73 -195 106 -814 50 -1674 -160
-2412 -44 -158 -191 -563 -193 -535 -1 5 22 70 50 145 47 125 98 284 99 306 0
5 -6 3 -13 -3 -8 -6 -18 -7 -22 -3 -5 4 -5 2 -1 -5 3 -6 2 -14 -4 -18 -6 -4
-8 -11 -4 -16 3 -5 -8 -14 -25 -20 -17 -6 -31 -17 -31 -24 0 -8 -5 -17 -10
-20 -7 -4 -9 3 -5 22 3 15 -16 -28 -43 -97 -85 -215 -272 -620 -286 -620 -3 0
30 73 73 163 146 304 253 596 325 882 138 555 191 1082 167 1680 -11 270 -42
652 -55 674 -6 10 -176 78 -306 123 -389 134 -862 244 -1305 303 -110 15 -205
28 -211 30 -6 2 -9 16 -6 33 4 28 7 30 36 27 17 -3 101 -12 186 -21z m-650
-97 c91 -14 197 -33 237 -42 l71 -16 -18 -62 c-20 -72 -3 -68 -182 -38 -408
69 -860 66 -1256 -7 -63 -12 -105 -16 -108 -10 -10 16 -34 112 -29 116 7 7
173 39 290 56 202 30 288 34 560 31 228 -2 296 -7 435 -28z m-235 -302 c72 -8
157 -19 190 -26 69 -12 195 -46 203 -54 3 -3 -1 -44 -8 -91 -12 -85 -12 -86
-39 -79 -384 97 -852 97 -1184 0 -32 -9 -60 -15 -62 -13 -5 5 -25 128 -25 155
0 18 10 24 56 38 263 76 584 102 869 70z m634 -41 c136 -30 210 -51 231 -64
21 -14 9 -12 -38 4 -23 8 -65 20 -94 25 -29 6 -91 19 -138 30 -89 20 -106 20
-71 1 12 -6 19 -16 15 -22 -4 -7 -9 -6 -15 3 -8 14 -9 12 -9 -26 0 -3 3 -5 8
-6 27 -3 37 -37 19 -66 -5 -8 -3 -13 7 -13 9 0 16 5 16 12 0 15 15 0 15 -15 0
-7 7 -11 16 -9 9 1 16 -4 16 -12 0 -8 -6 -12 -14 -9 -7 3 -13 -1 -13 -8 -1 -8
-6 -4 -14 9 -12 22 -12 20 -11 -21 0 -24 7 -52 14 -61 13 -15 15 -15 34 1 20
18 20 18 4 -7 -9 -13 -17 -27 -17 -30 0 -4 21 -33 46 -66 25 -32 66 -100 90
-150 40 -84 49 -95 127 -157 105 -83 228 -208 284 -289 39 -56 43 -67 42 -118
-1 -39 4 -65 16 -83 9 -15 15 -27 12 -27 -3 0 -16 17 -28 38 -113 188 -202
293 -355 422 -200 169 -457 296 -715 354 -192 44 -456 44 -659 2 -145 -30
-219 -55 -348 -116 -253 -120 -479 -329 -628 -579 -20 -34 -39 -60 -41 -58 -8
9 91 166 154 245 27 33 40 59 37 70 -5 14 -4 15 5 2 10 -14 16 -7 12 13 -1 5
3 6 8 2 10 -6 37 34 33 48 -1 5 1 6 6 3 5 -3 18 1 28 9 19 15 19 15 0 8 -15
-5 -18 -3 -14 13 3 10 7 25 9 33 6 24 37 50 61 53 22 3 55 27 165 120 121 103
253 173 401 214 36 10 58 21 51 25 -7 4 3 7 22 7 19 1 57 6 84 12 28 5 120 13
205 16 186 8 324 -9 496 -61 62 -19 119 -32 127 -30 7 3 24 1 38 -5 22 -9 21
-10 -8 -4 -49 8 -40 -2 17 -21 28 -9 65 -29 83 -43 22 -19 28 -21 17 -7 -7 11
-21 26 -29 33 -13 10 -13 12 2 12 14 0 17 10 18 48 0 26 8 101 18 167 17 105
17 121 4 131 -11 10 -11 13 -1 17 21 9 26 8 147 -19z m372 -131 c16 -10 29
-22 29 -28 0 -5 -30 -34 -66 -64 l-66 -54 88 -32 c100 -35 108 -39 217 -103
43 -25 87 -57 98 -70 22 -28 25 -80 7 -104 -27 -33 -52 -30 -118 18 -36 25
-92 59 -125 76 -70 36 -186 81 -192 74 -2 -2 1 -31 8 -64 16 -76 4 -97 -49
-88 -48 7 -58 18 -109 123 -30 62 -58 104 -84 127 -37 31 -38 34 -21 49 24 22
313 157 335 157 11 0 32 -8 48 -17z m-2446 -70 c177 -48 205 -58 205 -73 0 -5
-31 -65 -69 -133 -37 -69 -80 -150 -95 -182 l-26 -58 -41 7 c-82 13 -93 33
-64 116 18 52 19 80 3 80 -20 0 -196 -91 -263 -135 -77 -51 -167 -143 -211
-217 -33 -53 -38 -58 -71 -58 -43 0 -73 24 -73 57 0 95 207 304 429 434 61 35
111 67 111 71 0 5 -30 23 -67 40 -79 38 -89 59 -41 88 40 25 45 24 273 -37z
m3050 -154 l65 -61 47 39 c98 80 118 88 153 53 37 -37 26 -71 -42 -138 l-62
-61 67 -70 c75 -77 87 -116 45 -145 -42 -29 -67 -20 -136 49 l-65 64 -54 -52
c-63 -61 -83 -72 -116 -63 -29 7 -52 55 -43 90 3 14 29 44 56 67 28 23 50 47
50 54 0 7 -10 20 -21 31 -44 39 -99 117 -99 140 0 29 36 64 67 64 14 0 47 -23
88 -61z m-1523 -88 c293 -63 568 -214 792 -436 201 -199 335 -462 381 -750 19
-116 19 -305 0 -422 -31 -189 -120 -410 -238 -583 -58 -86 -67 -95 -98 -98
-63 -4 -66 9 -17 79 60 85 102 162 123 227 10 30 30 65 45 79 52 46 97 182
116 349 9 75 -1 66 -26 -24 -42 -151 -114 -262 -170 -262 -37 0 -138 53 -172
90 l-27 29 -32 -52 c-45 -71 -152 -181 -222 -229 -67 -46 -194 -108 -220 -108
-10 0 -15 -4 -12 -10 3 -5 -4 -17 -17 -27 -13 -10 -41 -37 -64 -60 l-41 -43
-213 0 -213 0 -76 42 c-324 177 -603 376 -635 453 -39 93 -60 219 -61 360 l0
140 130 64 c72 35 147 66 167 68 35 5 37 4 61 -43 39 -76 60 -96 31 -29 -86
199 2 503 168 580 55 26 94 22 150 -14 l33 -21 -35 0 c-74 0 -145 -90 -180
-225 -46 -180 -2 -358 104 -420 101 -59 192 -12 256 132 46 105 52 276 12 367
-12 25 -19 46 -16 46 3 0 23 -14 44 -31 35 -28 45 -31 86 -26 25 2 53 12 61
20 13 13 12 20 -10 64 l-24 49 61 22 c33 11 129 35 211 53 83 17 154 35 158
39 10 9 -196 -30 -344 -66 l-111 -26 -91 89 c-124 120 -225 188 -342 227 -46
16 -51 16 -87 0 -37 -17 -40 -17 -66 3 -15 10 -35 22 -44 26 -26 10 -23 20 29
77 74 83 183 155 293 196 32 12 33 13 9 13 -95 3 -458 -82 -584 -137 -92 -40
-247 -158 -292 -222 -15 -23 -58 -81 -95 -129 -114 -150 -157 -249 -188 -434
-8 -49 -20 -81 -44 -115 -69 -97 -80 -129 -79 -227 2 -140 40 -299 106 -430
36 -74 112 -181 136 -194 10 -6 33 -47 51 -93 18 -46 54 -125 81 -177 27 -52
49 -95 49 -97 0 -2 -22 -4 -50 -4 -49 0 -50 1 -103 68 -244 303 -356 660 -318
1017 44 409 250 745 601 980 191 128 426 215 645 239 100 10 372 -3 467 -23z
m-2490 -193 c35 -12 37 -15 35 -53 -1 -22 1 -47 3 -55 4 -12 -4 -14 -39 -12
-30 2 -49 -3 -62 -14 -22 -20 -39 -11 -39 21 0 12 -7 25 -15 29 -23 9 -18 35
10 46 14 5 25 17 25 28 0 24 11 34 30 28 8 -3 32 -11 52 -18z m1802 -155 l35
-16 -18 -36 c-38 -74 -44 -109 -27 -136 14 -22 24 -25 71 -25 29 0 56 -4 59
-9 3 -5 -12 -20 -33 -34 -112 -74 -181 -228 -181 -405 l0 -77 -42 -13 c-24 -8
-96 -42 -160 -78 l-117 -64 -43 17 c-75 29 -214 120 -285 187 -29 26 -33 36
-33 81 0 71 33 194 71 265 63 119 181 222 335 291 142 64 297 86 368 52z
m-1513 -182 c24 -15 54 -40 67 -54 l23 -25 72 54 c80 60 116 68 141 32 27 -38
19 -61 -44 -123 l-60 -59 65 -66 c70 -70 79 -96 45 -130 -37 -37 -78 -27 -142
37 l-57 57 -60 -57 c-67 -64 -99 -72 -138 -35 -36 34 -29 60 33 128 l57 61
-62 63 c-57 60 -60 66 -50 94 8 24 36 48 60 51 3 1 25 -12 50 -28z m4035 -147
c66 -80 125 -155 132 -167 24 -42 -13 -107 -60 -107 -21 0 -77 54 -109 105
l-19 30 0 -66 c0 -219 -116 -515 -277 -706 -50 -59 -87 -69 -123 -33 -34 34
-25 68 37 150 67 89 134 225 163 332 19 69 52 279 45 286 -1 2 -31 -27 -65
-63 -56 -57 -68 -65 -100 -65 -29 0 -41 6 -54 25 -24 37 -20 49 37 117 97 116
169 212 193 260 21 40 29 48 53 48 25 0 45 -20 147 -146z m-4367 123 c6 -8 13
-56 16 -108 6 -112 19 -187 44 -266 11 -32 25 -78 31 -102 13 -51 6 -61 -47
-61 -40 0 -63 31 -97 131 -51 152 -67 341 -33 392 19 30 66 37 86 14z m2302
-306 c47 -38 19 -131 -39 -131 -40 0 -62 27 -62 76 0 66 52 95 101 55z m-2065
-293 c16 -12 46 -37 67 -57 l37 -35 55 54 c41 41 61 53 84 53 41 0 61 -19 61
-59 0 -26 -11 -45 -54 -91 l-54 -59 54 -51 c60 -57 70 -93 34 -131 -35 -38
-66 -29 -128 38 l-55 60 -63 -60 c-69 -66 -92 -73 -129 -35 -39 38 -32 67 30
131 62 63 62 56 -8 131 -46 48 -52 87 -17 115 29 24 51 23 86 -4z m570 -683
c16 -44 19 -65 11 -65 -7 0 -208 -9 -447 -20 -572 -26 -505 -30 -519 28 -7 26
-14 54 -17 64 -4 14 8 17 88 23 134 10 852 42 857 38 2 -2 15 -32 27 -68z
m3129 60 c66 -3 221 -13 345 -21 124 -7 235 -14 246 -14 21 0 21 -1 6 -65 -14
-59 -18 -65 -41 -65 -111 0 -761 38 -769 44 -3 3 34 112 43 126 3 6 16 8 28 6
12 -3 76 -8 142 -11z m-2359 -111 c70 -57 354 -249 409 -277 17 -8 40 -26 53
-40 l23 -24 -83 -6 c-46 -4 -135 -7 -198 -7 -63 0 -182 -5 -264 -10 -172 -11
-182 -8 -228 77 -23 42 -78 192 -78 213 0 4 33 20 73 34 39 15 101 42 137 61
36 18 70 33 76 34 6 1 42 -24 80 -55z m1224 -419 c704 -23 990 -54 1043 -112
22 -26 127 -225 175 -335 50 -115 120 -319 115 -334 -2 -8 34 -13 114 -18 257
-15 474 -59 649 -131 244 -100 419 -269 495 -475 66 -181 75 -376 24 -488 -33
-72 -52 -92 -84 -91 l-26 0 25 10 c50 20 82 98 45 113 -8 3 -15 2 -15 -3 0
-15 -82 -102 -111 -116 -46 -24 -45 -17 2 15 51 34 92 95 110 162 28 103 -26
361 -104 498 -60 107 -189 221 -322 287 -102 51 -299 109 -450 132 -99 15
-331 41 -370 41 -30 0 -35 4 -49 43 -8 23 -22 69 -31 102 -36 130 -159 411
-221 505 -31 46 -51 55 -161 74 -546 94 -1937 124 -2588 55 -164 -17 -376 -49
-433 -65 l-54 -15 -63 -132 c-66 -139 -131 -299 -185 -457 -17 -52 -35 -98
-38 -102 -4 -4 -68 -12 -142 -18 -447 -35 -754 -145 -947 -339 -119 -119 -193
-320 -193 -527 0 -122 18 -171 83 -230 41 -37 45 -43 21 -31 -32 16 -94 80
-94 97 0 11 -40 50 -52 50 -12 0 1 -49 24 -89 23 -40 18 -53 -6 -16 -71 108
-72 351 -4 533 105 281 412 491 839 573 66 12 177 24 263 28 l149 6 37 110
c79 233 232 563 274 591 136 88 1189 135 2256 99z m-652 -415 c5 -334 0 -363
-67 -429 -63 -63 -129 -83 -289 -89 -166 -6 -235 12 -303 77 -77 75 -82 107
-74 430 l8 268 75 7 c41 3 94 6 118 6 l43 0 3 -251 c3 -250 3 -251 27 -270 18
-15 39 -19 93 -19 60 0 72 3 93 25 l25 24 0 245 c0 225 1 245 18 249 9 2 64 3
122 3 l105 -1 3 -275z m517 265 c121 -4 232 -8 248 -11 l27 -6 0 -108 c0 -83
-3 -108 -12 -106 -7 3 -62 7 -122 11 l-109 6 5 -277 4 -277 -80 7 c-45 3 -102
6 -128 6 l-48 0 0 265 0 265 -114 0 -114 0 -4 113 c-2 61 -2 116 0 121 3 4 55
6 116 2 61 -3 210 -8 331 -11z m-1398 -410 c73 -220 135 -404 136 -410 2 -10
-199 -37 -242 -33 -19 3 -27 15 -46 76 -13 41 -26 76 -28 79 -3 2 -77 -3 -165
-13 l-160 -17 -24 -81 -24 -81 -143 -24 c-78 -13 -145 -21 -147 -18 -6 6 274
848 286 861 12 13 350 66 399 63 22 -2 33 -29 158 -402z m2129 365 c188 -23
246 -39 296 -80 63 -52 84 -112 118 -330 20 -122 29 -211 25 -237 -13 -92 -83
-146 -203 -157 -91 -9 -368 25 -447 55 -75 28 -155 105 -173 166 -17 59 -28
397 -13 449 17 62 51 106 101 132 55 27 91 28 296 2z m939 -810 c400 -34 603
-96 731 -224 39 -40 72 -85 93 -129 36 -76 81 -269 81 -350 0 -105 -72 -190
-191 -225 -32 -9 -59 -20 -59 -23 0 -4 53 -78 118 -165 65 -88 145 -197 177
-244 32 -47 71 -104 88 -126 24 -35 27 -45 18 -63 -15 -26 -69 -67 -101 -74
-34 -8 -308 72 -352 102 -38 26 -83 92 -222 327 -52 88 -101 165 -108 171 -7
6 -34 13 -60 16 -37 5 -48 3 -48 -7 0 -7 11 -102 25 -210 14 -108 25 -201 25
-206 0 -6 -11 -7 -27 -3 -16 4 -118 23 -228 43 l-200 35 -12 170 c-29 387 -79
967 -99 1138 l-7 57 119 0 c66 0 173 -5 239 -10z m-4059 -62 c-4 -35 -15 -130
-24 -213 l-17 -150 -50 -7 c-214 -29 -288 -38 -292 -34 -3 2 0 35 6 72 6 38 9
70 7 71 -7 7 -240 -48 -281 -66 -47 -21 -85 -67 -88 -108 -2 -20 6 -32 30 -48
35 -24 50 -27 268 -55 203 -26 249 -41 306 -99 57 -56 69 -95 69 -222 0 -149
-44 -293 -116 -378 -87 -104 -288 -187 -639 -266 -141 -31 -314 -44 -368 -26
-43 15 -77 57 -77 98 0 25 47 206 81 311 14 41 41 54 189 87 59 14 116 28 125
32 17 6 17 -1 11 -91 l-7 -98 22 7 c13 4 71 20 130 36 162 42 207 70 224 140
9 36 -28 77 -80 89 -22 5 -107 19 -190 30 -235 32 -324 71 -366 157 -20 41
-21 55 -16 157 16 286 115 423 382 529 183 72 368 105 604 106 l164 1 -7 -62z
m2576 2 c84 -6 167 -12 184 -15 l31 -5 -4 -83 c-2 -45 -6 -106 -9 -135 l-5
-52 -102 7 c-56 5 -145 8 -198 8 -117 0 -132 -10 -150 -94 -14 -69 -4 -280 16
-328 22 -53 58 -62 269 -69 102 -4 189 -10 194 -13 5 -3 11 -70 14 -148 l4
-143 -25 0 c-112 1 -544 32 -576 41 -102 29 -168 90 -207 188 -20 52 -21 74
-22 311 -1 243 0 258 22 311 57 141 189 220 379 228 17 0 100 -4 185 -9z
m-642 -16 c0 -8 -4 -45 -9 -82 -6 -37 -13 -93 -16 -124 l-6 -58 -102 0 c-56 0
-143 -5 -193 -9 -170 -17 -193 -48 -194 -261 0 -109 3 -142 18 -170 29 -59 48
-63 260 -51 103 6 198 11 210 11 22 0 22 -2 22 -134 l0 -134 -72 -6 c-266 -20
-498 -28 -547 -17 -109 23 -168 73 -197 164 -21 71 -28 239 -16 433 9 142 13
169 37 222 28 63 95 136 151 165 89 46 217 64 482 66 150 1 172 -1 172 -15z
m1151 -29 c200 -20 523 -56 527 -60 3 -3 31 -228 32 -256 0 -14 -7 -15 -47 -9
-27 5 -115 15 -198 24 -82 9 -161 18 -175 20 l-26 5 9 -70 10 -69 34 0 c54 0
327 -32 335 -39 6 -6 27 -213 22 -219 -1 -2 -65 3 -141 12 -76 8 -162 17 -191
20 l-53 5 3 -72 3 -72 60 -7 c33 -3 134 -14 225 -23 91 -9 168 -20 172 -24 7
-6 33 -280 27 -285 -2 -1 -85 8 -184 20 -165 21 -360 42 -541 59 l-72 7 -6 96
c-3 54 -11 239 -16 412 -5 173 -12 366 -16 428 l-6 112 30 0 c16 0 98 -7 183
-15z m-2210 -77 c65 -30 100 -71 124 -146 15 -45 17 -84 13 -280 -6 -256 -20
-341 -69 -416 -37 -55 -111 -111 -181 -138 -117 -44 -373 -82 -514 -76 -113 5
-154 24 -199 92 -53 81 -60 134 -46 350 18 296 45 397 132 491 107 116 245
155 534 151 138 -1 154 -4 206 -28z m-2065 -825 l46 -6 -44 -19 c-24 -10 -53
-33 -66 -51 -28 -41 -119 -318 -134 -409 l-12 -67 30 -38 c28 -34 63 -65 160
-141 l29 -23 -33 18 c-94 51 -201 160 -203 207 0 12 -3 15 -6 8 -2 -6 -9 -10
-14 -6 -22 13 -8 -66 16 -95 36 -42 145 -127 208 -162 28 -16 48 -29 44 -29
-14 0 -70 31 -122 68 -137 98 -175 144 -175 206 0 96 119 466 174 544 6 8 19
11 33 7 13 -3 44 -8 69 -12z m6330 -94 c172 -351 203 -440 173 -495 -14 -28
-159 -147 -159 -131 0 2 29 27 65 55 79 64 97 94 85 147 -5 21 -14 41 -21 45
-6 4 -9 12 -6 16 2 5 -4 29 -14 54 -14 32 -18 36 -14 15 l7 -30 -31 39 c-17
21 -31 36 -31 33 0 -3 16 -42 35 -87 47 -109 46 -129 -9 -177 -61 -53 -351
-231 -362 -221 -1 2 36 25 84 52 117 65 214 130 270 181 l46 42 -13 44 c-7 24
-61 140 -120 258 -92 185 -110 215 -138 229 -18 9 -33 18 -33 21 0 3 32 6 70
5 l70 -1 46 -94z m-2586 -233 c560 -50 918 -116 1325 -245 177 -56 227 -80 95
-46 -32 8 -149 33 -261 55 -642 125 -1188 180 -1774 180 -723 -1 -1484 -84
-2085 -229 -86 -21 -107 -25 -99 -17 4 4 162 53 329 103 343 100 816 178 1238
203 97 6 200 12 227 14 124 9 841 -4 1005 -18z m-584 -219 c20 -50 39 -94 41
-96 2 -3 56 -13 120 -23 64 -9 120 -21 125 -26 6 -6 -26 -37 -80 -80 l-90 -71
29 -102 c27 -97 35 -139 24 -139 -2 0 -54 27 -116 61 l-111 61 -62 -33 c-33
-18 -85 -45 -114 -61 -29 -16 -57 -26 -62 -23 -5 3 5 54 20 113 16 59 30 112
30 118 0 6 -38 42 -85 79 -47 38 -85 72 -85 76 0 9 23 13 155 29 49 6 91 12
91 13 1 1 21 45 44 97 23 52 46 101 52 108 17 20 32 -1 74 -101z m-860 -23
c129 -90 279 -181 427 -259 60 -32 111 -64 114 -72 5 -13 -20 -120 -31 -130
-16 -16 -515 293 -699 431 -109 82 -109 82 -35 94 110 17 109 17 224 -64z
m1812 63 l73 -12 -28 -26 c-86 -78 -260 -198 -462 -318 -185 -111 -294 -171
-308 -171 -10 0 -40 128 -32 134 2 1 69 38 149 82 138 76 402 245 465 298 34
28 41 29 143 13z m-2336 -105 c123 -106 397 -299 563 -399 240 -145 670 -336
755 -336 43 0 329 112 505 198 236 115 523 299 768 493 89 70 144 85 75 20
-165 -155 -495 -379 -803 -546 -120 -65 -474 -224 -529 -238 -67 -17 -675 288
-976 489 -166 111 -430 319 -430 338 0 19 41 8 72 -19z m-118 -106 c172 -155
472 -368 741 -527 196 -116 671 -359 702 -359 18 0 431 207 573 288 343 194
627 392 847 590 100 91 103 92 135 82 29 -9 29 -9 5 -6 -15 2 -30 -1 -33 -5
-3 -5 1 -9 8 -9 8 0 23 -6 33 -14 17 -12 18 -16 5 -32 -7 -11 -1 -6 16 9 24
23 27 29 14 37 -8 5 -10 10 -5 10 6 0 16 -4 23 -9 38 -24 -280 -322 -553 -517
-118 -85 -312 -207 -490 -309 -208 -119 -559 -305 -576 -305 -18 0 -378 188
-566 296 -423 242 -784 509 -1001 739 -80 85 -105 129 -39 69 17 -16 26 -22
19 -14 -10 12 -9 18 10 32 20 15 20 18 5 18 -10 0 -20 -7 -23 -15 -6 -15 -24
-12 -24 4 0 10 40 29 63 30 10 1 60 -37 111 -83z"/>
<path d="M5092 8662 c-29 -53 -48 -67 -114 -86 -32 -9 -58 -19 -58 -21 0 -3
14 -24 31 -48 29 -40 31 -46 26 -114 -2 -40 -2 -73 -1 -73 2 0 34 14 70 31
l67 32 64 -32 c35 -17 66 -31 69 -31 3 0 3 33 -1 73 -7 73 -7 73 29 120 20 26
36 49 36 51 0 2 -12 7 -27 10 -93 23 -98 25 -128 76 -16 27 -32 50 -35 50 -4
0 -16 -17 -28 -38z m64 -36 c22 -35 35 -45 63 -50 62 -10 66 -18 36 -65 -25
-37 -27 -47 -23 -106 3 -36 4 -65 2 -65 -3 0 -27 11 -54 25 -27 14 -57 25 -66
25 -9 0 -38 -11 -66 -25 -27 -14 -52 -25 -54 -25 -3 0 -2 26 1 58 6 52 4 61
-24 104 l-30 47 50 12 c55 14 90 43 109 89 15 35 20 33 56 -24z"/>
<path d="M6017 6923 c-62 -85 -116 -177 -108 -183 5 -3 23 -32 41 -65 19 -33
35 -62 37 -64 1 -2 35 11 75 29 126 58 223 48 254 -26 36 -85 4 -161 -79 -188
-17 -5 -16 -8 3 -47 30 -58 60 -183 60 -249 0 -121 -43 -247 -110 -323 -22
-26 -27 -37 -17 -37 9 0 32 19 52 43 80 91 124 236 111 367 l-6 66 60 12 c33
7 72 23 86 36 27 22 27 23 13 77 -19 73 -87 205 -157 302 -57 79 -256 297
-272 297 -5 0 -24 -21 -43 -47z"/>
<path d="M6111 6620 c-30 -11 -79 -34 -109 -52 -53 -33 -204 -161 -211 -180
-2 -5 2 -20 9 -33 10 -19 8 -33 -16 -91 -25 -61 -29 -81 -29 -179 0 -101 2
-115 28 -167 46 -93 106 -123 182 -89 80 35 131 144 142 302 5 71 2 99 -15
156 -12 39 -29 76 -37 83 -8 7 -15 16 -15 20 0 12 101 50 158 59 29 4 61 16
71 25 26 24 33 71 16 112 -23 57 -80 68 -174 34z"/>
<path d="M5051 5871 c-70 -70 -9 -216 115 -277 60 -29 86 -24 41 8 -15 11 -38
39 -52 61 -26 46 -48 128 -37 139 4 4 41 -16 82 -44 155 -105 327 -165 503
-175 73 -5 87 -3 87 9 0 11 -18 17 -72 21 -194 17 -393 103 -539 233 -55 49
-96 57 -128 25z"/>
<path d="M3846 4622 c-3 -6 -23 -66 -45 -134 -21 -67 -41 -132 -44 -143 -7
-20 -4 -20 98 -11 90 8 105 12 99 25 -4 9 -23 69 -43 133 -36 116 -53 150 -65
130z"/>
<path d="M6200 4570 c-21 -21 -22 -27 -15 -137 9 -140 14 -161 47 -186 36 -27
217 -37 237 -13 14 17 16 80 6 196 -12 127 -33 146 -168 156 -79 6 -86 5 -107
-16z"/>
<path d="M7333 3618 c4 -18 14 -94 23 -168 9 -74 17 -136 18 -136 0 -1 60 -7
133 -13 126 -11 134 -11 173 9 46 24 55 48 46 123 -10 71 -47 132 -97 158 -41
21 -136 41 -243 53 l-58 6 5 -32z"/>
<path d="M3681 3555 c-95 -30 -118 -84 -127 -309 l-7 -151 26 -30 c23 -28 30
-30 89 -29 109 1 176 34 203 99 8 18 16 101 21 207 l7 176 -26 26 c-22 22 -35
26 -84 25 -32 0 -78 -6 -102 -14z"/>
</g>
</svg>
